<?xml version="1.0" encoding="UTF-8"?>
<svg xmlns="http://www.w3.org/2000/svg" width="720" height="420" viewBox="0 0 720 420" font-family="Arial">
<defs><marker id="ah" markerWidth="9" markerHeight="9" refX="8" refY="3" orient="auto"><path d="M0,0 L8,3 L0,6 z" fill="#1f2937"/></marker></defs>
<rect width="720" height="420" fill="#ffffff"/><text x="40" y="45" font-size="20" font-weight="800" fill="#1f2937">Контейнеры vs ВМ</text><rect x="40" y="80" width="300" height="320" rx="10" fill="#ffffff" stroke="#10b981" stroke-width="2"/><text x="190.0" y="246.3" text-anchor="middle" font-size="18" font-weight="700" fill="#1f2937"></text><text x="190" y="102" font-size="16" font-weight="800" fill="#10b981" text-anchor="middle">Виртуальные машины</text><rect x="60" y="120" width="260" height="40" rx="10" fill="#f3f4f6" stroke="#3b82f6" stroke-width="2"/><text x="190.0" y="146.3" text-anchor="middle" font-size="18" font-weight="700" fill="#1f2937">Приложение</text><rect x="60" y="165" width="260" height="40" rx="10" fill="#ffffff" stroke="#f59e0b" stroke-width="2"/><text x="190.0" y="191.3" text-anchor="middle" font-size="18" font-weight="700" fill="#1f2937">Гостевая ОС</text><rect x="60" y="210" width="260" height="30" rx="10" fill="#ffffff" stroke="#f59e0b" stroke-width="2"/><text x="190.0" y="231.3" text-anchor="middle" font-size="18" font-weight="700" fill="#1f2937">Гипервизор</text><rect x="60" y="245" width="260" height="30" rx="10" fill="#ffffff" stroke="#1f2937" stroke-width="2"/><text x="190.0" y="266.3" text-anchor="middle" font-size="18" font-weight="700" fill="#1f2937">Хост-ОС + железо</text><rect x="400" y="80" width="280" height="320" rx="10" fill="#ffffff" stroke="#7c3aed" stroke-width="2"/><text x="540.0" y="246.3" text-anchor="middle" font-size="18" font-weight="700" fill="#1f2937"></text><text x="540" y="102" font-size="16" font-weight="800" fill="#7c3aed" text-anchor="middle">Контейнеры</text><rect x="420" y="120" width="240" height="34" rx="10" fill="#f3f4f6" stroke="#3b82f6" stroke-width="2"/><text x="540.0" y="143.3" text-anchor="middle" font-size="18" font-weight="700" fill="#1f2937">Контейнер</text><rect x="420" y="160" width="240" height="34" rx="10" fill="#ffffff" stroke="#f59e0b" stroke-width="2"/><text x="540.0" y="183.3" text-anchor="middle" font-size="18" font-weight="700" fill="#1f2937">Общее ядро ОС</text><rect x="420" y="200" width="240" height="30" rx="10" fill="#ffffff" stroke="#1f2937" stroke-width="2"/><text x="540.0" y="221.3" text-anchor="middle" font-size="18" font-weight="700" fill="#1f2937">Хост-ОС + железо</text><text x="190" y="345" font-size="14" fill="#1f2937" text-anchor="middle">Каждая ВМ — своя ОС, изоляция полная</text><text x="540" y="345" font-size="14" fill="#1f2937" text-anchor="middle">Контейнеры делят ядро, запуск мгновенный</text></svg>
